<?xml version="1.0" encoding="UTF-8"?>
<svg xmlns="http://www.w3.org/2000/svg" xmlns:xlink="http://www.w3.org/1999/xlink" width="1200px" height="1200px" viewBox="0 0 1200 1200" version="1.1">
<g id="surface1">
<path style=" stroke:none;fill-rule:nonzero;fill:rgb(28.235294%,21.568627%,100%);fill-opacity:1;" d="M 834.929688 176.292969 C 831.1875 176.917969 824.324219 181.910156 819.640625 187.214844 C 813.402344 195.015625 811.84375 199.695312 812.777344 209.054688 C 813.402344 216.542969 812.464844 221.222656 809.96875 222.15625 C 803.417969 224.652344 805.289062 242.125 812.464844 249.300781 C 822.136719 258.972656 825.257812 273.015625 819.640625 281.75 C 812.15625 293.292969 792.808594 304.214844 773.15625 308.269531 C 736.027344 316.070312 729.472656 323.246094 729.164062 358.191406 C 729.164062 370.980469 727.289062 388.453125 725.417969 397.191406 C 723.546875 405.613281 720.425781 419.652344 718.867188 427.765625 C 716.683594 437.75 712.625 445.238281 706.699219 450.230469 C 694.21875 460.527344 684.546875 484.863281 678.929688 518.558594 C 676.433594 533.847656 673.003906 549.445312 670.820312 553.191406 C 667.386719 559.742188 647.417969 577.527344 630.882812 589.382812 C 622.144531 595.621094 625.578125 602.796875 636.1875 600.300781 L 643.675781 598.117188 L 638.996094 609.972656 C 636.1875 616.527344 632.753906 623.078125 630.882812 624.949219 C 625.578125 630.253906 627.761719 636.804688 634.625 634.933594 C 640.242188 633.375 640.867188 634.308594 638.996094 642.421875 C 636.1875 654.277344 643.675781 654.589844 652.722656 643.359375 L 659.273438 634.933594 L 657.402344 644.917969 C 654.59375 658.957031 663.640625 657.710938 669.257812 643.046875 L 673.9375 631.8125 L 677.683594 642.109375 C 683.296875 658.957031 687.355469 649.285156 689.226562 613.71875 C 690.164062 595.933594 692.660156 576.902344 694.53125 571.910156 C 696.402344 566.605469 708.882812 545.078125 722.296875 523.863281 C 742.578125 491.414062 746.632812 482.988281 746.632812 472.070312 C 746.632812 462.085938 748.820312 455.847656 755.996094 447.109375 C 765.667969 434.941406 766.601562 429.324219 765.355469 399.0625 C 765.042969 387.519531 765.667969 383.148438 768.164062 384.398438 C 770.035156 385.644531 771.59375 390.015625 771.59375 394.070312 C 771.59375 398.4375 775.339844 414.039062 779.707031 429.015625 C 788.441406 459.277344 788.441406 479.558594 779.394531 521.988281 C 776.898438 533.847656 771.59375 569.726562 768.164062 601.550781 C 761.921875 654.277344 761.921875 663.015625 765.355469 702.324219 C 770.347656 754.429688 767.851562 787.503906 757.554688 814.957031 C 748.195312 839.917969 747.257812 873.925781 754.746094 906.0625 C 760.988281 933.519531 756.304688 967.527344 745.699219 973.453125 C 736.027344 978.445312 733.84375 982.8125 738.523438 988.429688 C 741.019531 990.925781 745.699219 999.664062 749.128906 1007.460938 C 756.304688 1024 767.539062 1029.300781 779.394531 1021.503906 C 785.011719 1017.757812 786.570312 1013.078125 788.441406 995.605469 C 789.378906 984.0625 789.066406 970.023438 787.507812 964.71875 C 783.761719 951.300781 790.003906 926.34375 803.417969 902.628906 L 813.714844 883.910156 L 812.777344 845.222656 C 812.15625 811.214844 812.777344 804.972656 818.394531 793.117188 C 822.761719 784.382812 826.195312 768.15625 828.378906 747.566406 C 830.25 727.285156 834.304688 708.253906 838.988281 696.398438 C 845.226562 680.796875 846.472656 672.0625 846.472656 645.855469 C 846.472656 626.820312 847.722656 614.03125 849.59375 614.03125 C 851.464844 614.03125 852.714844 626.511719 852.714844 644.917969 C 852.714844 669.878906 854.273438 679.550781 860.203125 695.773438 C 864.570312 707.007812 869.25 729.78125 871.121094 746.628906 C 873.304688 763.476562 877.675781 783.757812 881.105469 791.558594 C 886.410156 803.726562 887.035156 811.214844 886.410156 843.664062 L 885.472656 881.414062 L 897.019531 904.503906 C 912.617188 935.703125 916.050781 950.367188 911.996094 967.214844 C 910.121094 975.324219 909.808594 988.117188 911.058594 999.351562 C 913.242188 1015.574219 914.800781 1018.695312 922.289062 1022.125 C 935.082031 1028.367188 942.882812 1024 950.058594 1007.773438 C 953.492188 999.664062 958.792969 990.613281 961.601562 987.183594 C 966.28125 981.878906 966.28125 981.253906 960.976562 977.820312 C 947.875 970.023438 946.316406 967.214844 943.507812 947.871094 C 941.011719 932.269531 941.324219 922.597656 944.753906 905.75 C 951.929688 872.367188 950.996094 839.917969 941.945312 814.644531 C 931.339844 785.316406 929.15625 752.558594 933.835938 701.078125 C 937.578125 662.390625 937.578125 652.09375 932.585938 608.414062 C 929.464844 581.582031 924.472656 545.078125 921.042969 527.292969 C 910.433594 471.132812 910.433594 462.398438 919.171875 429.636719 C 923.539062 413.414062 928.21875 395.941406 929.464844 390.949219 C 931.339844 383.773438 932.273438 388.140625 933.835938 409.980469 C 935.082031 434.941406 936.332031 439.308594 944.128906 448.359375 C 950.371094 455.847656 952.554688 461.773438 952.554688 471.445312 C 952.554688 482.054688 956.609375 490.789062 977.515625 523.863281 C 991.242188 545.390625 1003.722656 567.230469 1005.28125 572.222656 C 1006.84375 577.214844 1009.027344 595 1009.960938 611.535156 C 1011.210938 628.382812 1012.769531 643.980469 1013.707031 646.789062 C 1016.828125 654.277344 1020.570312 652.09375 1022.753906 641.484375 L 1025.25 631.503906 L 1029.617188 642.734375 C 1032.113281 648.972656 1036.484375 654.902344 1038.976562 655.839844 C 1043.035156 657.398438 1043.660156 655.839844 1042.097656 646.167969 L 1040.226562 634.308594 L 1046.464844 642.734375 C 1049.898438 647.726562 1055.515625 651.46875 1058.945312 651.46875 C 1064.5625 651.46875 1064.5625 650.847656 1060.507812 640.550781 C 1058.011719 634.621094 1056.449219 629.628906 1057.386719 629.628906 C 1058.011719 629.628906 1056.449219 626.199219 1053.640625 621.832031 C 1044.59375 608.101562 1042.722656 613.40625 1050.835938 629.628906 C 1055.203125 638.054688 1058.632812 645.855469 1058.632812 647.101562 C 1058.632812 652.71875 1045.84375 637.117188 1043.035156 627.757812 C 1040.851562 621.832031 1038.042969 617.148438 1036.171875 617.148438 C 1033.050781 617.148438 1033.363281 620.894531 1038.355469 643.980469 C 1041.472656 658.335938 1034.296875 646.167969 1030.242188 630.253906 C 1026.1875 614.652344 1021.195312 613.09375 1021.195312 627.132812 C 1021.195312 632.75 1019.945312 639.300781 1018.386719 641.484375 C 1016.828125 643.980469 1015.265625 631.8125 1014.019531 611.847656 C 1012.457031 580.023438 1012.769531 577.839844 1019.011719 572.847656 C 1024.003906 568.789062 1024.9375 566.605469 1022.128906 564.734375 C 1019.945312 563.484375 1015.578125 546.636719 1012.144531 527.292969 C 1008.714844 507.949219 1002.164062 483.613281 998.105469 473.007812 C 993.738281 462.398438 990.617188 453.351562 991.242188 452.726562 C 991.554688 452.101562 995.921875 458.964844 1000.601562 467.390625 C 1005.59375 476.75 1011.210938 493.910156 1013.707031 508.886719 C 1021.195312 552.566406 1023.691406 559.117188 1038.667969 571.597656 C 1049.898438 580.957031 1052.394531 585.015625 1052.394531 593.4375 C 1052.394531 599.054688 1055.515625 609.972656 1059.570312 617.773438 C 1064.875 628.382812 1065.5 631.503906 1062.066406 630.253906 C 1059.257812 629.316406 1058.324219 629.941406 1059.882812 632.125 C 1061.128906 634.308594 1064.25 635.871094 1066.746094 635.871094 C 1071.738281 635.871094 1072.675781 629.316406 1068.304688 624.949219 C 1066.746094 623.078125 1063.316406 616.527344 1060.507812 609.972656 C 1055.828125 598.429688 1055.828125 598.429688 1063.003906 600.300781 C 1073.921875 602.796875 1076.730469 595.621094 1067.683594 588.757812 C 1027.746094 558.496094 1026.5 556.933594 1019.324219 513.253906 C 1014.640625 483.613281 1006.84375 465.207031 993.113281 450.230469 C 987.1875 443.679688 982.820312 433.695312 979.074219 417.46875 C 976.265625 404.679688 972.523438 388.765625 970.960938 382.527344 C 969.402344 375.972656 968.777344 363.804688 970.027344 355.695312 C 973.457031 328.550781 961.601562 315.132812 926.96875 307.957031 C 906.066406 303.589844 897.332031 298.910156 884.539062 285.804688 C 875.179688 275.820312 874.554688 274.574219 877.988281 264.589844 C 880.171875 258.972656 884.226562 251.796875 887.660156 248.367188 C 893.585938 242.4375 895.457031 225.589844 890.15625 222.46875 C 888.59375 221.535156 887.035156 214.671875 887.035156 207.183594 C 887.035156 182.222656 866.441406 170.054688 834.929688 176.292969 Z M 875.179688 189.710938 C 883.914062 198.445312 884.226562 200.316406 882.355469 214.980469 C 880.792969 226.527344 881.105469 230.582031 883.601562 229.023438 C 885.472656 227.773438 887.035156 228.710938 887.035156 231.519531 C 887.035156 240.253906 883.289062 245.871094 877.363281 245.871094 C 874.242188 245.871094 868.003906 247.429688 863.632812 249.613281 C 855.835938 253.046875 855.523438 253.671875 856.457031 283 C 857.082031 322.308594 852.402344 417.46875 849.59375 417.46875 C 846.785156 417.46875 842.417969 326.054688 843.042969 283 C 843.667969 253.671875 843.355469 253.046875 835.554688 249.613281 C 831.1875 247.429688 824.632812 245.871094 821.515625 245.871094 C 818.082031 245.871094 815.273438 244.933594 815.273438 243.375 C 815.273438 242.125 814.339844 237.757812 813.089844 233.703125 C 811.84375 228.398438 812.15625 226.839844 814.960938 228.398438 C 817.457031 229.957031 818.394531 225.902344 817.769531 213.109375 C 817.144531 196.886719 817.769531 194.390625 825.570312 187.839844 C 832.433594 182.222656 838.050781 180.351562 849.90625 180.351562 C 863.324219 180.351562 867.066406 181.910156 875.179688 189.710938 Z M 827.441406 260.535156 C 827.441406 268.335938 827.128906 268.644531 824.632812 263.03125 C 820.890625 254.605469 820.890625 252.109375 824.632812 252.109375 C 826.507812 252.109375 827.753906 255.855469 827.441406 260.535156 Z M 877.363281 254.292969 C 877.363281 255.855469 876.113281 259.597656 874.554688 263.03125 C 872.058594 268.644531 871.746094 268.335938 871.746094 260.535156 C 871.433594 255.855469 872.996094 252.109375 874.554688 252.109375 C 876.425781 252.109375 877.675781 253.046875 877.363281 254.292969 Z M 838.050781 266.460938 C 837.425781 271.453125 836.800781 283.308594 836.492188 292.980469 L 835.554688 310.453125 L 824.945312 306.085938 C 819.019531 303.589844 811.53125 302.34375 808.097656 303.277344 C 803.730469 304.214844 805.601562 301.71875 813.402344 295.476562 C 826.820312 284.246094 835.242188 269.582031 833.058594 260.847656 C 831.808594 257.101562 832.746094 255.230469 834.929688 256.167969 C 837.113281 256.789062 838.363281 261.46875 838.050781 266.460938 Z M 868.316406 266.773438 C 868.316406 276.445312 870.5 280.503906 882.976562 291.734375 C 891.089844 299.222656 895.457031 304.527344 892.652344 303.589844 C 890.15625 302.652344 882.667969 303.589844 875.800781 305.773438 L 863.632812 310.140625 L 862.699219 282.6875 C 862.074219 265.527344 863.011719 255.230469 865.195312 255.230469 C 866.753906 255.230469 868.316406 260.535156 868.316406 266.773438 Z M 826.195312 312.636719 C 832.121094 315.132812 837.425781 317.628906 837.738281 318.253906 C 838.050781 318.878906 838.988281 340.40625 839.921875 366.613281 C 841.792969 411.542969 841.484375 413.726562 836.492188 409.046875 C 826.195312 399.6875 812.464844 375.351562 809.035156 360.375 C 804.667969 339.78125 797.492188 323.871094 789.691406 315.445312 L 783.136719 308.269531 L 799.363281 308.269531 C 808.097656 308.269531 820.265625 310.453125 826.195312 312.636719 Z M 909.808594 315.132812 C 900.761719 325.117188 897.640625 331.980469 891.714844 355.070312 C 886.722656 374.101562 872.996094 400.308594 863.632812 408.109375 C 860.203125 410.917969 859.578125 404.988281 859.265625 372.542969 C 858.953125 351.015625 859.578125 329.796875 860.828125 325.117188 C 863.632812 314.511719 877.363281 308.582031 899.203125 308.269531 L 916.050781 308.269531 Z M 785.632812 318.878906 C 791.25 322.933594 790.9375 323.558594 780.953125 329.796875 C 775.027344 333.230469 766.601562 341.34375 762.234375 347.582031 C 757.867188 353.820312 750.066406 362.246094 745.074219 366.300781 L 735.402344 373.476562 L 734.777344 356.316406 C 733.84375 334.789062 737.585938 327.925781 753.808594 320.4375 C 769.410156 313.574219 777.835938 312.949219 785.632812 318.878906 Z M 944.128906 319.191406 C 960.042969 325.742188 965.035156 334.476562 965.035156 356.316406 L 965.035156 374.726562 L 955.050781 366.925781 C 949.433594 362.558594 941.324219 353.820312 936.953125 347.582031 C 932.585938 341.34375 924.164062 333.230469 918.234375 329.796875 C 908.25 323.558594 907.9375 322.933594 913.554688 318.878906 C 921.042969 313.261719 930.402344 313.261719 944.128906 319.191406 Z M 804.355469 360.375 C 807.164062 373.789062 803.730469 373.476562 785.945312 357.878906 C 778.144531 351.015625 771.59375 346.335938 771.59375 347.582031 C 771.59375 353.820312 788.441406 370.671875 798.113281 374.101562 C 804.042969 376.285156 809.035156 379.40625 809.035156 380.652344 C 809.035156 384.085938 775.339844 383.773438 773.464844 380.34375 C 772.21875 378.78125 770.660156 370.671875 769.410156 362.871094 C 767.539062 348.519531 767.851562 347.582031 779.707031 337.597656 L 791.875 327.300781 L 796.867188 338.847656 C 799.988281 345.085938 803.105469 355.070312 804.355469 360.375 Z M 930.714844 356.941406 C 930.714844 362.558594 929.464844 370.671875 927.59375 375.039062 C 924.785156 382.527344 922.914062 383.148438 907.316406 383.148438 C 887.660156 383.148438 885.472656 380.03125 901.074219 374.101562 C 910.746094 370.671875 927.59375 353.820312 927.59375 347.582031 C 927.59375 346.335938 921.042969 351.015625 913.242188 357.878906 C 900.449219 369.109375 893.273438 373.167969 893.273438 369.421875 C 893.273438 368.796875 896.082031 358.8125 899.515625 347.582031 L 906.066406 326.988281 L 918.234375 336.972656 C 928.21875 344.773438 930.714844 348.832031 930.714844 356.941406 Z M 755.996094 391.886719 C 744.761719 407.796875 732.59375 440.246094 729.164062 462.398438 C 725.730469 485.796875 720.738281 472.070312 721.988281 442.742188 C 723.234375 420.589844 724.171875 417.78125 734.777344 404.988281 C 741.019531 397.191406 750.066406 383.148438 755.058594 373.789062 L 763.792969 356.628906 L 764.730469 367.238281 C 765.667969 375.351562 763.484375 381.589844 755.996094 391.886719 Z M 943.195312 370.359375 C 943.507812 373.167969 947.25 380.652344 951.929688 387.207031 C 980.011719 426.207031 978.136719 421.839844 978.136719 447.421875 C 978.136719 475.191406 973.144531 484.550781 970.027344 462.085938 C 966.90625 439.933594 954.425781 406.863281 943.507812 391.886719 C 937.265625 383.148438 933.835938 375.039062 933.835938 368.175781 C 933.835938 358.8125 934.457031 357.878906 938.515625 361.308594 C 941.011719 363.496094 943.195312 367.550781 943.195312 370.359375 Z M 741.640625 387.832031 C 736.652344 395.628906 731.660156 401.871094 730.410156 401.871094 C 726.042969 401.871094 734.464844 381.277344 741.019531 376.285156 C 751.316406 368.484375 751.625 371.917969 741.640625 387.832031 Z M 969.089844 391.574219 C 970.027344 396.566406 970.339844 400.933594 969.714844 401.246094 C 968.15625 402.804688 949.433594 376.597656 949.433594 373.167969 C 949.433594 366.613281 967.53125 383.773438 969.089844 391.574219 Z M 824.945312 402.496094 C 836.492188 415.597656 836.800781 416.535156 836.800781 439.308594 C 836.800781 452.101562 834.929688 474.566406 833.058594 488.605469 L 829.316406 514.8125 L 820.265625 507.636719 C 807.472656 497.652344 793.433594 474.253906 793.433594 463.023438 C 793.433594 457.71875 791.25 445.863281 788.753906 436.8125 C 786.257812 428.078125 782.203125 413.414062 779.707031 404.988281 L 775.339844 389.390625 L 794.058594 389.390625 C 812.15625 389.390625 813.402344 389.703125 824.945312 402.496094 Z M 924.472656 390.636719 C 924.472656 391.261719 920.417969 405.300781 915.113281 422.148438 C 910.121094 439 905.753906 456.46875 905.753906 461.460938 C 905.753906 466.140625 904.507812 473.316406 902.945312 477.375 C 899.828125 485.175781 875.492188 514.191406 871.746094 514.191406 C 868.625 514.191406 862.074219 461.148438 862.074219 436.8125 C 862.074219 419.964844 863.324219 416.847656 873.929688 403.742188 C 885.472656 389.390625 885.472656 389.390625 905.128906 389.390625 C 915.738281 389.390625 924.472656 390.015625 924.472656 390.636719 Z M 757.867188 431.511719 C 755.058594 438.6875 748.507812 447.734375 743.203125 451.476562 L 733.53125 458.652344 L 735.714844 451.476562 C 736.960938 447.421875 740.082031 440.246094 742.265625 435.566406 C 744.761719 430.886719 746.632812 424.644531 746.632812 421.527344 C 746.632812 418.40625 749.753906 410.917969 753.808594 404.988281 L 760.675781 394.070312 L 761.609375 406.238281 C 762.234375 413.101562 760.363281 424.335938 757.867188 431.511719 Z M 954.738281 426.207031 C 967.53125 462.710938 967.21875 459.902344 956.609375 451.789062 C 944.441406 443.054688 939.761719 433.070312 937.890625 411.230469 C 936.332031 394.695312 936.332031 394.382812 941.945312 399.6875 C 945.066406 402.496094 950.996094 414.351562 954.738281 426.207031 Z M 857.394531 442.117188 C 857.394531 453.351562 859.265625 477.0625 861.761719 494.535156 C 867.066406 532.910156 864.570312 542.269531 849.59375 542.269531 C 833.996094 542.269531 832.121094 533.535156 838.363281 490.167969 C 841.171875 469.886719 843.355469 446.175781 843.355469 437.75 C 843.355469 423.710938 843.976562 422.148438 850.53125 421.839844 C 857.082031 421.527344 857.394531 422.460938 857.394531 442.117188 Z M 718.554688 471.445312 C 718.554688 483.925781 715.433594 493.910156 705.449219 514.8125 C 698.273438 530.101562 692.035156 541.644531 691.097656 541.023438 C 689.226562 538.839844 698.898438 497.964844 706.386719 476.125 C 710.128906 466.140625 712.003906 456.78125 711.066406 455.847656 C 707.324219 452.101562 695.777344 486.421875 688.289062 523.550781 C 683.921875 545.078125 678.929688 563.484375 677.058594 564.734375 C 674.875 565.980469 676.121094 568.789062 680.492188 572.535156 C 687.042969 577.839844 687.042969 579.710938 685.171875 612.46875 C 683.921875 633.375 682.363281 644.292969 680.800781 640.550781 C 679.554688 637.117188 678.304688 630.566406 678.304688 625.574219 C 677.996094 616.527344 671.753906 613.40625 671.753906 622.453125 C 671.753906 625.574219 668.945312 633.6875 665.515625 640.550781 C 662.082031 647.414062 659.898438 650.222656 660.835938 646.789062 C 664.890625 627.132812 665.828125 617.148438 663.332031 617.148438 C 661.769531 617.148438 658.960938 621.832031 656.777344 627.757812 C 653.347656 637.117188 640.554688 652.40625 640.554688 647.101562 C 640.554688 645.855469 643.988281 638.054688 648.355469 629.628906 C 652.722656 620.894531 654.90625 614.03125 653.347656 614.03125 C 650.226562 614.03125 641.800781 626.511719 642.738281 629.628906 C 643.050781 630.566406 640.867188 631.503906 637.746094 631.8125 C 632.753906 632.125 633.066406 630.878906 639.617188 618.085938 C 643.675781 609.972656 646.792969 599.054688 646.792969 593.4375 C 646.792969 585.015625 649.289062 580.957031 660.835938 571.285156 C 676.121094 558.804688 678.929688 551.941406 683.921875 518.871094 C 688.289062 489.542969 692.035156 478 701.394531 463.957031 C 712.003906 447.421875 718.554688 450.542969 718.554688 471.445312 Z M 1004.035156 514.8125 C 1007.777344 531.664062 1010.585938 545.390625 1009.960938 545.390625 C 1009.339844 545.390625 1003.097656 534.15625 996.234375 520.742188 C 982.820312 493.910156 978.449219 475.8125 982.195312 462.085938 C 984.378906 453.664062 984.378906 453.664062 990.617188 468.949219 C 994.050781 477.375 999.976562 498.277344 1004.035156 514.8125 Z M 742.265625 466.140625 C 741.332031 468.949219 740.394531 474.253906 740.394531 478.308594 C 740.394531 485.175781 692.96875 560.988281 688.601562 560.988281 C 687.667969 560.988281 689.539062 556.308594 692.96875 550.695312 C 704.828125 531.664062 721.675781 497.964844 721.675781 493.910156 C 721.675781 491.726562 723.859375 489.230469 726.355469 487.980469 C 728.851562 487.046875 731.035156 484.238281 731.035156 481.742188 C 731.035156 474.878906 737.898438 461.148438 741.332031 461.148438 C 742.890625 461.148438 743.203125 463.335938 742.265625 466.140625 Z M 963.785156 466.453125 C 965.96875 469.574219 968.15625 475.191406 968.15625 479.246094 C 968.15625 482.988281 970.027344 487.046875 972.523438 487.980469 C 975.019531 488.917969 977.828125 493.285156 979.074219 497.652344 C 980.011719 502.023438 987.1875 516.6875 994.988281 530.414062 C 1002.785156 544.140625 1008.402344 556 1007.777344 556.621094 C 1007.15625 557.558594 996.234375 542.269531 983.441406 522.925781 C 968.15625 499.214844 960.042969 483.300781 958.792969 474.253906 C 956.609375 459.902344 957.546875 458.34375 963.785156 466.453125 Z M 794.683594 517 C 784.074219 527.605469 783.449219 527.917969 785.011719 520.429688 C 785.945312 516.0625 787.820312 505.140625 789.066406 496.09375 L 791.25 479.558594 L 798.738281 492.664062 L 806.226562 506.078125 Z M 913.554688 513.566406 L 915.738281 527.292969 L 904.507812 516.375 L 893.585938 505.453125 L 900.449219 492.664062 L 907.316406 480.183594 L 909.5 490.167969 C 910.433594 495.46875 912.304688 506.078125 913.554688 513.566406 Z M 821.515625 516.6875 C 831.5 524.796875 828.066406 536.964844 814.652344 542.582031 C 809.347656 544.765625 798.738281 551.316406 791.25 556.933594 L 777.835938 567.230469 L 777.835938 559.742188 C 777.835938 546.324219 784.074219 534.78125 797.492188 522.925781 C 804.667969 516.375 811.53125 511.070312 812.464844 511.070312 C 813.714844 511.070312 817.769531 513.566406 821.515625 516.6875 Z M 903.257812 522.613281 C 915.738281 535.40625 921.355469 547.261719 921.355469 560.367188 L 921.355469 568.476562 L 912.929688 560.367188 C 907.9375 556 899.203125 549.757812 893.273438 546.949219 C 870.5 535.71875 866.753906 528.230469 878.296875 517.308594 C 887.660156 508.574219 890.15625 509.199219 903.257812 522.613281 Z M 829.9375 554.125 C 830.25 560.367188 833.371094 572.535156 836.800781 580.957031 C 840.546875 589.070312 843.355469 598.742188 843.355469 601.863281 C 843.355469 618.085938 827.441406 629.628906 805.914062 629.628906 C 798.738281 629.628906 790.625 630.878906 787.507812 632.75 C 782.515625 635.246094 781.578125 634 779.707031 621.207031 C 776.273438 595.308594 777.523438 577.839844 783.449219 570.351562 C 787.820312 565.046875 821.203125 544.140625 827.753906 542.582031 C 828.691406 542.582031 829.625 547.574219 829.9375 554.125 Z M 846.785156 569.414062 C 847.722656 579.398438 848.347656 588.132812 847.722656 588.757812 C 845.539062 591.253906 837.425781 567.855469 835.242188 554.125 C 833.371094 541.335938 833.371094 541.023438 838.988281 546.015625 C 842.417969 549.445312 845.226562 558.183594 846.785156 569.414062 Z M 859.890625 569.414062 L 854.273438 587.511719 L 853.339844 572.847656 C 852.714844 562.550781 853.960938 555.6875 858.019531 549.445312 C 866.128906 537.277344 867.066406 546.949219 859.890625 569.414062 Z M 892.339844 553.8125 C 916.675781 566.605469 921.355469 573.46875 921.042969 595.308594 C 921.042969 618.398438 917.296875 638.367188 914.179688 633.375 C 912.617188 631.503906 905.441406 629.628906 897.640625 629.628906 C 872.683594 629.628906 855.835938 618.710938 855.835938 602.175781 C 855.835938 598.742188 858.953125 589.382812 862.386719 580.957031 C 866.128906 572.847656 869.25 560.679688 869.5625 554.125 C 869.5625 547.574219 870.5 542.582031 871.433594 543.207031 C 872.371094 543.519531 881.730469 548.511719 892.339844 553.8125 Z M 690.472656 567.230469 C 690.472656 568.789062 688.914062 570.351562 687.042969 570.351562 C 685.484375 570.351562 684.859375 568.789062 685.792969 567.230469 C 686.730469 565.359375 688.289062 564.109375 689.226562 564.109375 C 689.851562 564.109375 690.472656 565.359375 690.472656 567.230469 Z M 1013.394531 567.230469 C 1014.332031 568.789062 1013.707031 570.351562 1012.144531 570.351562 C 1010.273438 570.351562 1008.714844 568.789062 1008.714844 567.230469 C 1008.714844 565.359375 1009.339844 564.109375 1009.960938 564.109375 C 1010.898438 564.109375 1012.457031 565.359375 1013.394531 567.230469 Z M 639.304688 593.75 C 636.1875 596.246094 632.128906 597.496094 630.257812 596.246094 C 628.699219 595.308594 630.570312 592.503906 634.625 590.316406 C 643.988281 585.636719 647.417969 588.132812 639.304688 593.75 Z M 1069.242188 595.621094 C 1067.371094 599.054688 1055.515625 593.125 1055.515625 589.070312 C 1055.515625 587.199219 1058.632812 587.511719 1063.316406 589.695312 C 1067.371094 591.566406 1070.179688 594.375 1069.242188 595.621094 Z M 774.714844 654.589844 C 774.714844 679.550781 773.464844 695.148438 771.59375 695.148438 C 769.722656 695.148438 768.472656 685.167969 768.472656 670.8125 C 768.472656 646.789062 771.59375 614.03125 773.464844 614.03125 C 774.089844 614.03125 774.714844 632.125 774.714844 654.589844 Z M 930.402344 662.390625 C 930.402344 686.101562 929.15625 697.644531 927.59375 693.589844 C 923.851562 684.542969 923.851562 614.34375 927.59375 620.269531 C 929.15625 622.765625 930.402344 641.796875 930.402344 662.390625 Z M 842.417969 648.972656 C 841.484375 663.636719 838.363281 681.734375 834.929688 690.15625 L 828.691406 705.445312 L 823.699219 677.367188 C 816.523438 638.054688 816.523438 637.429688 830.25 630.253906 C 836.492188 626.820312 842.417969 624.015625 843.042969 623.703125 C 843.667969 623.703125 843.355469 634.933594 842.417969 648.972656 Z M 881.105469 636.496094 C 882.355469 637.117188 882.042969 644.292969 880.171875 653.03125 C 878.609375 661.453125 876.113281 677.054688 874.867188 687.351562 L 872.683594 706.070312 L 865.507812 690.46875 C 860.828125 680.175781 857.707031 666.445312 856.769531 649.285156 L 854.898438 623.703125 L 866.753906 629.628906 C 873.304688 633.0625 879.546875 636.183594 881.105469 636.496094 Z M 801.234375 641.175781 C 800.296875 644.292969 797.179688 663.636719 794.683594 684.230469 C 790.625 718.238281 781.578125 751 774.089844 759.109375 C 770.96875 762.542969 772.84375 731.652344 777.835938 695.148438 C 779.394531 683.917969 780.953125 668.007812 780.953125 659.582031 C 780.953125 643.671875 786.257812 636.183594 797.800781 635.871094 C 801.859375 635.871094 802.792969 637.429688 801.234375 641.175781 Z M 815.585938 667.070312 C 820.265625 696.085938 819.953125 711.0625 812.777344 746.316406 L 806.851562 774.085938 L 803.417969 755.988281 C 799.050781 734.148438 798.738281 702.636719 802.792969 667.695312 C 805.601562 643.046875 809.660156 628.382812 810.90625 638.988281 C 811.21875 641.484375 813.402344 654.277344 815.585938 667.070312 Z M 896.394531 662.703125 C 900.449219 693.277344 900.136719 738.832031 895.769531 758.175781 L 892.339844 774.710938 L 887.660156 751.308594 C 882.667969 724.476562 881.417969 683.917969 885.472656 655.214844 C 888.59375 630.878906 892.652344 633.6875 896.394531 662.703125 Z M 912.929688 640.238281 C 916.675781 643.046875 918.234375 648.972656 918.234375 659.582031 C 918.234375 668.007812 920.417969 688.910156 922.914062 706.070312 C 925.410156 723.230469 927.28125 742.886719 927.28125 749.75 L 926.96875 762.230469 L 919.171875 745.695312 C 911.996094 730.40625 909.808594 720.734375 902.945312 668.628906 C 901.386719 656.460938 899.203125 644.292969 897.953125 641.175781 C 895.144531 634.621094 904.507812 634 912.929688 640.238281 Z M 821.203125 750.0625 C 817.144531 781.261719 812.777344 796.550781 812.464844 780.949219 C 812.15625 770.03125 821.828125 719.175781 823.699219 721.359375 C 824.324219 721.980469 823.386719 735.085938 821.203125 750.0625 Z M 882.355469 744.757812 C 887.035156 767.222656 888.59375 791.558594 885.164062 787.8125 C 883.601562 786.566406 874.867188 731.03125 874.554688 721.980469 C 874.554688 713.871094 877.988281 724.476562 882.355469 744.757812 Z M 798.425781 755.988281 C 800.921875 774.085938 800.921875 777.207031 795.929688 781.574219 C 789.378906 787.503906 789.378906 787.503906 784.386719 773.460938 C 781.578125 764.414062 781.890625 760.359375 786.257812 749.125 C 789.378906 741.636719 792.5 735.710938 793.433594 735.710938 C 794.371094 735.710938 796.554688 744.757812 798.425781 755.988281 Z M 914.492188 773.460938 C 910.433594 787.191406 910.121094 787.503906 903.882812 781.261719 C 898.578125 775.644531 898.578125 771.902344 902.945312 750.6875 L 906.691406 734.148438 L 912.617188 747.878906 C 917.296875 759.421875 917.609375 763.167969 914.492188 773.460938 Z M 780.953125 799.671875 C 777.835938 808.09375 769.097656 858.636719 767.226562 880.476562 C 766.289062 888.589844 765.042969 896.390625 764.105469 897.324219 C 759.738281 901.695312 757.867188 892.335938 758.179688 864.253906 C 758.179688 838.980469 759.425781 830.558594 766.289062 812.773438 C 770.96875 801.230469 774.714844 785.941406 775.027344 778.453125 L 775.027344 765.351562 L 779.394531 779.078125 C 782.203125 787.8125 782.515625 795.300781 780.953125 799.671875 Z M 925.722656 778.765625 C 924.785156 783.757812 927.90625 798.734375 933.523438 815.894531 C 939.136719 832.742188 943.195312 850.839844 942.882812 859.574219 C 942.882812 878.917969 938.828125 900.445312 936.332031 896.390625 C 935.394531 894.519531 932.273438 876.421875 929.15625 855.832031 C 926.347656 835.238281 922.289062 812.460938 919.792969 805.597656 C 916.675781 795.613281 916.675781 789.6875 919.171875 780.015625 C 922.914062 765.972656 928.53125 765.039062 925.722656 778.765625 Z M 805.914062 824.007812 C 806.226562 844.910156 806.226562 865.503906 806.226562 869.871094 C 805.914062 878.292969 793.746094 907.308594 790.316406 907.308594 C 789.066406 907.308594 785.011719 900.445312 780.953125 892.023438 C 774.089844 877.359375 774.089844 875.175781 777.523438 852.085938 C 779.707031 838.671875 782.828125 822.132812 784.699219 815.269531 C 788.441406 800.292969 799.050781 781.886719 802.792969 784.070312 C 804.355469 785.007812 805.601562 802.789062 805.914062 824.007812 Z M 913.554688 811.214844 C 916.050781 819.949219 919.792969 838.359375 921.667969 852.398438 C 924.785156 876.734375 924.785156 878.292969 916.988281 894.832031 L 909.1875 911.679688 L 901.386719 894.519531 C 893.898438 878.292969 893.585938 875.175781 894.523438 830.871094 C 895.144531 804.972656 896.082031 783.445312 896.082031 782.511719 C 897.332031 777.832031 909.5 797.796875 913.554688 811.214844 Z M 782.203125 938.820312 C 779.394531 949.117188 778.144531 967.214844 778.457031 985.933594 C 778.769531 1002.78125 778.144531 1017.132812 777.210938 1018.070312 C 776.273438 1019.007812 771.59375 1019.007812 766.914062 1017.757812 C 760.988281 1016.199219 756.929688 1012.140625 753.808594 1004.34375 C 751.316406 998.101562 747.257812 990.925781 744.761719 988.117188 C 740.707031 983.75 740.707031 982.8125 745.074219 981.253906 C 749.441406 979.382812 754.433594 987.183594 760.363281 1006.527344 C 761.609375 1010.269531 764.730469 1013.390625 767.226562 1013.390625 C 770.96875 1013.390625 771.28125 1012.140625 768.164062 1006.839844 C 765.667969 1001.847656 765.667969 998.414062 768.472656 992.796875 C 772.84375 985 770.660156 926.34375 765.667969 912.925781 C 763.792969 907.933594 764.730469 903.253906 768.164062 898.261719 L 772.84375 890.773438 L 780.019531 906.375 C 786.257812 921.351562 786.570312 923.222656 782.203125 938.820312 Z M 933.210938 916.046875 C 928.53125 932.582031 929.15625 1013.390625 933.835938 1013.390625 C 935.707031 1013.390625 942.882812 997.789062 947.25 984.6875 C 948.5 981.253906 950.996094 980.007812 954.113281 980.941406 C 958.484375 982.8125 958.484375 983.4375 954.425781 988.117188 C 951.929688 990.925781 949.121094 996.855469 947.875 1001.535156 C 945.378906 1011.519531 941.324219 1015.261719 929.777344 1018.070312 C 920.105469 1020.566406 920.417969 1021.8125 921.042969 977.511719 C 921.355469 963.78125 919.792969 946.308594 917.609375 938.511719 C 913.867188 926.03125 913.867188 922.910156 919.484375 907.933594 L 925.722656 891.085938 L 931.027344 898.261719 C 935.082031 903.878906 935.707031 907.308594 933.210938 916.046875 Z M 765.355469 963.46875 C 765.355469 989.054688 761.921875 999.972656 758.492188 985.933594 C 756.929688 980.628906 762.234375 935.390625 764.105469 935.390625 C 764.730469 935.390625 765.355469 947.871094 765.355469 963.46875 Z M 939.449219 941.007812 C 938.515625 944.4375 938.828125 953.796875 940.386719 962.222656 C 942.882812 978.757812 941.011719 992.484375 936.640625 989.679688 C 933.523438 987.804688 932.898438 940.695312 936.019531 937.574219 C 939.449219 933.832031 940.699219 935.078125 939.449219 941.007812 Z M 787.195312 982.8125 C 787.195312 984.375 785.945312 985.308594 784.074219 985.308594 C 782.515625 985.308594 780.953125 982.191406 780.953125 978.132812 C 780.953125 972.519531 781.578125 972.207031 784.074219 975.949219 C 785.632812 978.445312 787.195312 981.566406 787.195312 982.8125 Z M 917.296875 982.8125 C 916.363281 985 915.738281 983.4375 915.738281 979.070312 C 915.738281 974.703125 916.363281 973.140625 917.296875 975.015625 C 917.921875 977.199219 917.921875 980.941406 917.296875 982.8125 Z M 917.296875 982.8125 "/>
<path style=" stroke:none;fill-rule:nonzero;fill:rgb(28.235294%,21.568627%,100%);fill-opacity:1;" d="M 334.96875 192.042969 C 323.113281 200.15625 319.679688 206.082031 319.367188 217.003906 C 319.367188 222.308594 317.808594 227.300781 315.625 227.921875 C 309.382812 230.105469 311.566406 249.453125 318.742188 255.066406 C 323.425781 258.5 325.921875 265.050781 327.480469 277.53125 C 329.664062 296.25 328.414062 298.746094 305.015625 316.21875 C 301.894531 318.714844 300.648438 320.898438 302.207031 320.898438 C 304.078125 320.898438 310.320312 316.84375 316.246094 311.539062 C 329.664062 300.308594 331.847656 299.996094 331.847656 309.980469 C 331.847656 320.585938 324.671875 323.394531 295.96875 323.394531 C 268.199219 323.707031 258.214844 326.515625 249.792969 335.5625 C 241.992188 344.300781 239.496094 357.089844 241.367188 377.058594 C 242.304688 387.667969 241.679688 397.339844 239.183594 402.644531 C 237 407.324219 232.945312 419.804688 230.761719 430.410156 C 227.328125 444.761719 223.273438 452.875 215.160156 460.988281 C 202.679688 473.777344 199.558594 480.957031 192.695312 512.15625 C 189.886719 524.636719 186.144531 537.425781 184.273438 540.859375 C 178.34375 552.402344 162.433594 570.5 156.503906 572.371094 C 150.265625 574.242188 125.929688 603.257812 125.929688 608.5625 C 125.929688 610.433594 129.359375 611.058594 133.726562 609.8125 L 141.214844 607.9375 L 135.289062 621.042969 C 129.984375 632.585938 129.984375 634.460938 134.039062 635.394531 C 136.535156 636.019531 140.59375 634.769531 143.089844 632.898438 C 147.144531 629.46875 147.144531 630.402344 144.335938 639.140625 C 139.96875 650.996094 144.335938 658.171875 151.824219 651.929688 C 155.566406 649.125 156.816406 649.433594 158.375 653.179688 C 161.183594 660.980469 165.550781 658.484375 170.542969 646.003906 C 173.351562 639.761719 175.535156 636.957031 175.535156 640.074219 C 175.847656 643.820312 177.71875 645.378906 181.464844 644.753906 C 185.207031 644.132812 187.078125 640.386719 187.703125 631.339844 C 188.953125 614.492188 200.496094 568.003906 206.113281 556.769531 C 208.609375 552.089844 215.785156 542.105469 222.335938 534.929688 C 240.742188 514.652344 248.542969 502.171875 253.847656 483.453125 C 256.34375 473.777344 263.519531 457.867188 269.136719 447.882812 C 279.433594 429.789062 279.742188 429.789062 284.425781 436.964844 C 292.535156 448.195312 290.039062 516.835938 280.367188 550.21875 C 270.070312 585.789062 266.015625 628.53125 265.078125 703.410156 L 264.144531 778.914062 L 254.785156 793.890625 C 240.742188 816.042969 238.246094 828.523438 241.367188 860.035156 C 245.425781 896.539062 245.113281 923.996094 241.054688 934.601562 C 239.183594 939.28125 237.625 950.515625 237.3125 959.25 C 236.6875 971.105469 234.191406 978.59375 227.328125 988.890625 C 222.023438 996.378906 217.03125 1004.179688 215.472656 1006.363281 C 212.976562 1010.105469 222.648438 1015.722656 244.175781 1022.585938 C 258.214844 1026.957031 260.398438 1024.769531 265.390625 1000.746094 C 267.574219 990.140625 271.632812 978.90625 274.441406 975.789062 C 278.183594 971.730469 278.808594 967.675781 277.246094 961.433594 C 271.320312 940.21875 274.753906 920.875 290.351562 888.113281 C 305.328125 856.292969 305.328125 855.667969 304.703125 826.339844 C 304.390625 810.113281 305.640625 795.140625 307.199219 793.265625 C 308.761719 791.082031 311.566406 782.660156 313.128906 774.234375 C 314.375 766.125 318.121094 753.019531 320.929688 745.53125 C 323.734375 738.042969 327.792969 723.378906 330.289062 712.769531 C 332.472656 702.164062 338.089844 683.753906 342.457031 671.898438 C 346.824219 659.730469 350.566406 644.753906 350.566406 638.203125 C 350.566406 629.15625 351.816406 626.660156 356.496094 626.660156 C 361.175781 626.660156 362.425781 629.46875 363.671875 642.882812 C 364.296875 651.929688 368.664062 669.089844 373.03125 681.257812 C 377.398438 693.113281 383.328125 713.707031 386.449219 726.5 C 389.566406 739.292969 393 751.148438 394.246094 753.019531 C 395.496094 754.578125 397.679688 762.378906 398.929688 770.179688 C 400.175781 777.980469 402.671875 787.027344 404.855469 790.460938 C 406.726562 793.890625 408.289062 810.425781 408.289062 827.898438 C 408.289062 856.914062 408.910156 860.347656 418.273438 877.820312 C 430.128906 899.972656 432 896.539062 420.769531 872.515625 C 415.152344 860.660156 412.96875 850.675781 412.96875 836.636719 C 412.96875 791.082031 428.257812 826.652344 429.816406 875.636719 C 430.441406 892.796875 432 908.394531 433.246094 910.265625 C 438.550781 919.003906 440.425781 946.769531 436.054688 954.882812 C 432 962.371094 432.3125 964.554688 439.488281 977.972656 C 443.855469 986.082031 447.289062 997.316406 447.289062 1002.621094 C 447.289062 1008.234375 449.785156 1015.722656 452.902344 1019.46875 C 458.519531 1026.332031 457.585938 1026.644531 491.902344 1014.789062 C 498.769531 1012.292969 498.769531 1006.988281 491.28125 997.628906 C 480.359375 983.273438 475.367188 970.171875 475.367188 954.570312 C 475.367188 946.148438 473.808594 938.035156 471.9375 936.789062 C 469.128906 935.226562 468.816406 919.003906 470.375 877.820312 L 472.558594 821.035156 L 460.703125 797.945312 L 448.847656 774.859375 L 447.910156 703.097656 C 446.976562 629.777344 439.175781 560.828125 430.128906 542.417969 C 427.945312 538.050781 425.136719 516.210938 423.886719 494.058594 C 422.015625 459.738281 422.328125 451.628906 426.695312 441.019531 C 431.6875 429.476562 432.3125 429.164062 435.433594 434.777344 C 437.304688 438.210938 441.984375 446.011719 446.351562 452.5625 C 450.40625 458.804688 456.023438 471.90625 458.832031 481.890625 C 463.824219 501.859375 468.816406 509.972656 490.96875 536.179688 C 498.769531 545.539062 506.257812 554.898438 507.503906 556.769531 C 511.558594 563.636719 522.480469 609.1875 524.351562 626.972656 C 525.910156 642.257812 527.160156 645.378906 531.839844 645.378906 C 535.273438 645.378906 537.769531 643.195312 538.078125 639.761719 C 538.078125 636.957031 539.953125 639.140625 542.136719 645.066406 C 547.128906 658.796875 553.367188 661.292969 553.367188 649.746094 C 553.367188 641.011719 553.367188 641.011719 558.046875 647.5625 C 560.855469 651.621094 564.910156 653.804688 567.71875 652.554688 C 572.089844 650.996094 571.777344 647.5625 566.472656 633.210938 C 565.222656 630.089844 567.097656 630.402344 573.023438 634.460938 C 581.136719 639.761719 581.449219 639.761719 581.449219 634.148438 C 581.136719 630.714844 579.265625 624.789062 576.769531 620.417969 C 570.527344 609.8125 570.839844 608.5625 579.886719 610.433594 C 584.257812 611.058594 587.6875 610.746094 587.6875 609.5 C 587.6875 603.882812 564.601562 576.738281 555.550781 571.125 C 539.953125 562.074219 526.222656 538.988281 520.296875 511.53125 C 514.054688 483.140625 506.566406 467.226562 495.648438 459.113281 C 485.039062 451.628906 475.367188 416.683594 472.558594 377.058594 C 471.625 360.835938 468.816406 344.300781 466.632812 340.554688 C 461.015625 330.882812 446.976562 324.019531 431.6875 324.019531 C 421.390625 324.019531 415.464844 321.210938 401.425781 310.914062 L 384.265625 297.8125 L 385.824219 278.777344 C 387.070312 264.425781 388.945312 259.125 393.9375 255.691406 C 398.617188 252.570312 400.488281 248.203125 400.488281 239.46875 C 400.488281 232.601562 399.238281 227.300781 397.367188 227.300781 C 395.808594 227.300781 394.246094 222.929688 394.246094 217.628906 C 394.246094 210.761719 391.128906 204.835938 383.640625 197.347656 C 374.59375 188.300781 370.847656 186.738281 357.742188 186.738281 C 348.695312 186.738281 339.648438 188.921875 334.96875 192.042969 Z M 377.710938 197.972656 C 385.824219 203.273438 391.128906 214.195312 391.128906 226.050781 C 391.128906 230.417969 392.375 232.914062 394.246094 231.980469 C 396.121094 230.730469 397.367188 233.851562 397.367188 239.46875 C 397.367188 250.386719 391.128906 256.003906 390.816406 245.394531 C 390.503906 241.339844 388.320312 245.394531 385.199219 255.378906 C 380.832031 269.417969 378.023438 273.789062 368.664062 278.777344 C 357.742188 284.707031 357.121094 284.707031 344.640625 279.089844 C 331.535156 273.164062 330.601562 271.292969 326.855469 251.324219 C 325.921875 245.082031 323.734375 239.777344 322.488281 239.777344 C 320.929688 239.777344 320.617188 242.898438 321.863281 246.644531 C 322.800781 251.011719 322.488281 252.570312 319.992188 251.011719 C 317.808594 249.761719 316.246094 244.460938 316.246094 239.46875 C 316.246094 233.851562 317.496094 230.730469 319.367188 231.980469 C 321.238281 233.226562 322.488281 229.796875 322.488281 223.554688 C 322.488281 196.722656 354 182.058594 377.710938 197.972656 Z M 346.824219 309.042969 C 350.878906 318.714844 353.6875 328.386719 353.0625 330.882812 C 350.566406 338.371094 334.34375 305.300781 333.097656 290.324219 C 331.535156 273.789062 331.535156 274.097656 346.824219 309.042969 Z M 380.207031 290.324219 C 378.960938 297.8125 374.59375 309.980469 370.535156 317.46875 C 364.921875 327.453125 363.984375 332.132812 366.167969 334.9375 C 368.351562 337.433594 368.351562 339.621094 366.792969 340.867188 C 364.921875 341.804688 362.734375 355.53125 361.488281 371.132812 C 359.617188 393.59375 360.238281 400.148438 363.359375 402.332031 C 366.792969 404.515625 366.792969 405.761719 362.425781 408.882812 C 359.617188 411.066406 356.496094 416.371094 355.871094 420.738281 C 354.625 427.292969 354.625 426.980469 354 418.554688 C 354 413.25 351.816406 408.257812 349.945312 407.324219 C 346.824219 406.386719 346.824219 405.140625 349.632812 402.019531 C 357.121094 393.90625 349.007812 330.257812 341.207031 334.9375 C 339.960938 335.875 334.03125 334.9375 328.414062 332.753906 C 318.742188 329.636719 318.742188 329.011719 324.984375 326.828125 C 328.726562 325.265625 331.847656 322.769531 331.847656 320.898438 C 331.847656 314.660156 336.527344 318.089844 343.703125 329.011719 C 352.441406 342.113281 362.113281 342.738281 360.550781 329.636719 C 359.929688 325.265625 363.046875 314.347656 367.414062 305.609375 C 371.785156 296.875 375.527344 288.140625 375.527344 285.957031 C 375.214844 283.769531 371.785156 288.453125 367.726562 296.5625 C 363.359375 304.675781 358.679688 311.851562 357.121094 313.097656 C 354 314.660156 347.449219 304.363281 341.207031 288.140625 C 336.839844 276.59375 340.273438 278.777344 346.199219 291.257812 C 349.007812 297.1875 353.0625 302.179688 354.9375 302.179688 C 359.617188 302.179688 366.167969 295.628906 366.167969 291.257812 C 366.167969 289.699219 363.671875 290.945312 361.175781 294.378906 C 356.496094 300.621094 356.496094 300.621094 351.816406 294.378906 C 347.449219 288.453125 347.761719 288.140625 355.246094 287.203125 C 359.617188 286.578125 367.105469 284.082031 371.785156 281.585938 C 376.464844 279.402344 380.832031 277.21875 381.144531 277.21875 C 381.769531 277.21875 381.457031 283.148438 380.207031 290.324219 Z M 402.671875 323.394531 C 390.816406 324.957031 381.769531 319.027344 381.769531 309.667969 L 381.769531 301.867188 L 396.121094 312.164062 C 409.847656 321.835938 410.160156 322.460938 402.671875 323.394531 Z M 391.441406 327.453125 C 393.9375 327.453125 391.128906 329.636719 385.199219 332.132812 C 372.40625 337.746094 366.792969 334.316406 372.40625 324.019531 C 375.839844 317.777344 376.464844 317.777344 381.457031 322.148438 C 384.574219 324.957031 388.945312 327.140625 391.441406 327.453125 Z M 295.34375 332.441406 C 285.671875 335.875 275.6875 347.417969 272.566406 358.027344 C 269.136719 371.132812 250.726562 391.410156 250.726562 382.050781 C 250.726562 356.777344 267.886719 331.507812 285.984375 329.636719 C 296.59375 328.699219 301.585938 330.257812 295.34375 332.441406 Z M 443.542969 337.746094 C 453.527344 346.484375 458.519531 357.089844 460.703125 373.628906 L 462.265625 387.042969 L 451.96875 377.058594 C 446.351562 371.753906 441.046875 363.332031 440.113281 358.652344 C 438.238281 350.226562 431.0625 341.804688 417.648438 331.820312 C 412.03125 327.761719 412.34375 327.453125 423.886719 329.324219 C 430.753906 330.257812 439.800781 334.003906 443.542969 337.746094 Z M 265.390625 333.691406 C 256.96875 338.683594 249.480469 355.21875 247.296875 373.9375 L 245.425781 391.097656 L 244.800781 369.882812 C 244.488281 350.226562 245.113281 347.730469 253.535156 339.308594 C 258.527344 334.316406 264.457031 330.257812 266.953125 330.257812 C 269.449219 330.257812 269.136719 331.507812 265.390625 333.691406 Z M 455.398438 335.875 C 466.007812 344.300781 469.128906 353.347656 468.503906 374.5625 C 468.503906 385.484375 467.566406 389.226562 466.945312 383.300781 C 464.449219 358.964844 462.265625 351.476562 452.902344 341.179688 C 442.921875 329.636719 444.167969 326.828125 455.398438 335.875 Z M 329.039062 337.746094 L 339.648438 342.113281 L 324.046875 344.300781 C 308.449219 346.171875 277.558594 358.027344 280.367188 360.835938 C 280.992188 361.769531 288.792969 359.273438 297.214844 355.53125 C 305.953125 351.789062 319.367188 348.980469 328.105469 348.980469 C 343.390625 348.980469 343.390625 348.980469 345.574219 360.523438 C 346.511719 367.074219 347.449219 378.308594 347.449219 385.484375 C 347.449219 397.027344 346.199219 399.523438 338.398438 403.265625 C 331.222656 407.011719 325.609375 407.324219 311.566406 405.140625 C 290.664062 401.707031 285.046875 397.964844 285.046875 386.730469 C 284.734375 382.363281 282.863281 374.25 280.679688 369.257812 C 277.246094 361.460938 277.246094 358.339844 280.992188 351.476562 C 289.105469 335.25 309.070312 329.324219 329.039062 337.746094 Z M 423.886719 343.050781 C 440.113281 357.402344 438.238281 362.394531 420.144531 353.347656 C 411.71875 349.292969 398.304688 344.921875 389.566406 343.988281 L 373.96875 341.804688 L 383.328125 337.746094 C 399.238281 330.882812 411.71875 332.441406 423.886719 343.050781 Z M 419.207031 356.777344 C 433.871094 364.265625 464.761719 396.089844 470.375 409.507812 C 472.871094 415.433594 476.304688 427.914062 478.488281 437.273438 C 481.296875 451.003906 484.105469 456.308594 492.527344 462.546875 C 500.328125 468.476562 504.382812 475.339844 507.816406 487.195312 C 510.3125 495.929688 515.304688 513.402344 518.734375 525.257812 C 523.105469 540.234375 528.71875 551.46875 536.519531 560.515625 C 547.441406 573.308594 547.441406 573.929688 541.511719 575.804688 C 534.960938 577.363281 534.023438 578.921875 529.96875 596.707031 C 527.472656 607.9375 525.289062 605.441406 522.167969 589.21875 C 520.296875 578.300781 520.609375 576.113281 527.160156 571.125 L 534.648438 565.820312 L 523.414062 548.972656 C 517.175781 539.921875 508.753906 524.945312 505.007812 515.898438 C 500.953125 506.851562 491.28125 491.5625 483.480469 481.890625 C 467.878906 462.859375 466.320312 459.425781 475.054688 464.105469 C 480.671875 467.226562 484.726562 465.980469 484.726562 460.988281 C 484.726562 459.425781 482.855469 459.113281 480.359375 460.050781 C 476.304688 461.609375 455.089844 438.835938 447.289062 423.859375 C 441.984375 413.875 434.808594 387.042969 434.496094 375.5 C 434.496094 367.386719 433.871094 367.074219 431.6875 372.378906 C 430.128906 375.8125 428.878906 382.363281 428.878906 386.730469 C 428.566406 398.273438 422.953125 401.707031 400.175781 405.453125 C 383.015625 408.257812 379.585938 407.945312 372.71875 402.957031 C 365.855469 397.339844 365.230469 395.46875 365.855469 373.9375 C 366.167969 361.148438 367.105469 349.914062 367.726562 348.980469 C 369.910156 345.234375 408.289062 351.164062 419.207031 356.777344 Z M 278.808594 374.25 C 278.808594 375.8125 276.625 387.042969 273.816406 399.210938 C 270.070312 415.433594 265.390625 425.417969 254.785156 439.460938 C 239.183594 460.050781 235.753906 463.171875 232.007812 459.425781 C 228.886719 455.996094 236.6875 420.738281 243.550781 407.011719 C 248.542969 396.714844 272.257812 370.820312 276.3125 370.820312 C 277.558594 370.820312 278.808594 372.378906 278.808594 374.25 Z M 280.367188 408.882812 C 277.871094 423.859375 272.878906 434.777344 259.777344 454.125 C 254.785156 461.300781 250.726562 470.660156 250.726562 474.714844 C 250.726562 479.394531 248.542969 483.140625 245.425781 484.074219 C 242.304688 484.699219 237 486.570312 233.566406 488.132812 C 229.199219 490.003906 230.761719 486.570312 239.183594 476.898438 C 245.734375 469.410156 250.414062 461.609375 249.480469 459.425781 C 248.855469 457.554688 253.535156 448.507812 260.398438 439.460938 C 267.265625 430.410156 274.128906 416.996094 276 409.507812 C 280.367188 392.035156 283.175781 391.722656 280.367188 408.882812 Z M 452.902344 441.019531 C 459.144531 449.441406 464.449219 457.867188 464.761719 459.738281 C 464.761719 461.300781 465.382812 464.417969 465.382812 466.601562 C 465.695312 468.476562 469.441406 474.402344 473.808594 479.394531 L 481.609375 488.753906 L 472.246094 485.324219 C 463.824219 482.203125 461.015625 477.523438 462.574219 469.410156 C 462.886719 467.851562 461.953125 465.667969 460.703125 464.730469 C 449.785156 456.929688 431.375 416.996094 432 402.332031 C 432 396.402344 433.558594 398.585938 436.992188 409.820312 C 439.488281 418.242188 446.664062 432.28125 452.902344 441.019531 Z M 294.40625 409.195312 C 294.40625 406.699219 297.214844 406.699219 305.328125 409.195312 C 312.191406 411.066406 315.3125 413.5625 313.441406 415.433594 C 311.878906 416.996094 308.136719 416.996094 304.390625 414.8125 C 300.023438 412.316406 295.34375 412.316406 289.726562 414.5 C 282.550781 417.308594 281.617188 416.996094 283.175781 412.628906 C 284.113281 410.132812 285.046875 406.074219 285.046875 404.203125 C 285.046875 402.332031 287.230469 403.578125 289.726562 407.011719 C 292.222656 410.132812 294.40625 411.378906 294.40625 409.195312 Z M 422.953125 421.675781 C 419.207031 425.417969 414.527344 426.980469 411.40625 425.730469 C 404.230469 422.921875 408.601562 417.621094 418.585938 417.308594 C 423.265625 417.308594 425.136719 416.371094 423.265625 415.433594 C 420.144531 414.1875 420.144531 412.628906 422.953125 407.324219 L 427.007812 400.460938 L 427.945312 407.945312 C 428.566406 412.316406 426.695312 417.929688 422.953125 421.675781 Z M 411.71875 412.9375 C 404.542969 418.242188 398.617188 418.867188 395.808594 414.8125 C 394.246094 411.691406 400.800781 409.195312 411.40625 408.570312 C 417.648438 408.570312 417.648438 408.570312 411.71875 412.9375 Z M 349.945312 421.675781 C 350.566406 427.601562 348.695312 431.035156 343.078125 434.777344 C 326.855469 445.386719 319.367188 432.90625 333.40625 418.867188 C 342.769531 409.507812 348.695312 410.441406 349.945312 421.675781 Z M 378.023438 416.371094 C 382.390625 419.492188 384.886719 424.171875 384.886719 430.410156 C 384.886719 440.394531 383.015625 441.019531 371.160156 436.339844 C 364.609375 433.84375 363.046875 431.347656 363.046875 422.300781 C 363.046875 410.132812 367.105469 408.570312 378.023438 416.371094 Z M 303.769531 420.738281 C 307.511719 423.234375 307.511719 423.859375 302.519531 425.730469 C 299.089844 426.980469 295.03125 425.730469 291.910156 422.609375 C 287.230469 417.929688 287.230469 417.621094 292.847656 417.621094 C 296.28125 417.621094 301.273438 418.867188 303.769531 420.738281 Z M 322.488281 423.546875 C 320.929688 426.980469 319.367188 441.644531 319.367188 456.308594 C 319.367188 470.972656 318.121094 483.140625 316.871094 483.140625 C 313.753906 483.140625 314.375 426.355469 317.496094 421.363281 C 321.550781 414.8125 326.230469 416.996094 322.488281 423.546875 Z M 397.679688 433.21875 C 397.992188 437.585938 397.992188 450.691406 397.367188 462.859375 L 396.433594 484.699219 L 394.246094 456.621094 C 393 441.019531 390.816406 425.730469 389.566406 422.300781 C 387.382812 416.683594 387.695312 416.683594 392.0625 420.738281 C 394.871094 423.234375 397.367188 428.851562 397.679688 433.21875 Z M 294.40625 435.402344 C 294.40625 442.265625 289.414062 439.769531 285.671875 431.660156 C 280.679688 420.738281 280.992188 419.804688 288.167969 426.042969 C 291.601562 429.164062 294.40625 433.21875 294.40625 435.402344 Z M 426.695312 431.660156 C 422.953125 437.273438 420.769531 438.835938 418.894531 436.027344 C 417.648438 433.84375 419.519531 430.097656 423.265625 426.667969 C 432.3125 419.492188 433.558594 421.363281 426.695312 431.660156 Z M 311.257812 431.347656 C 310.320312 434.15625 308.136719 435.402344 306.265625 434.46875 C 304.703125 433.53125 305.015625 430.722656 307.199219 428.226562 C 311.878906 422.609375 314.0625 424.171875 311.257812 431.347656 Z M 407.976562 433.53125 C 405.480469 437.585938 400.488281 433.84375 400.488281 427.914062 C 400.488281 423.859375 401.425781 423.859375 405.167969 426.980469 C 407.664062 429.164062 408.910156 431.972656 407.976562 433.53125 Z M 359.929688 440.082031 C 359.617188 445.699219 359.617188 475.339844 359.929688 506.226562 C 359.929688 536.804688 359.304688 570.1875 358.054688 580.171875 C 356.496094 595.460938 356.808594 598.890625 361.175781 600.453125 C 369.910156 603.882812 375.527344 595.769531 383.953125 567.066406 C 391.128906 542.730469 392.6875 539.921875 397.679688 542.730469 C 400.800781 544.292969 405.792969 545.539062 409.222656 545.539062 C 421.703125 545.539062 422.015625 552.089844 411.097656 587.347656 C 400.488281 621.355469 394.246094 665.660156 394.246094 710.585938 C 394.246094 739.601562 390.503906 731.492188 387.695312 695.609375 C 385.199219 665.660156 385.511719 662.851562 397.367188 613.554688 C 404.230469 585.476562 411.40625 559.578125 412.96875 555.523438 C 414.527344 551.777344 414.839844 548.660156 413.28125 548.660156 C 405.792969 548.660156 393.9375 563.636719 386.449219 582.667969 C 381.457031 595.148438 373.34375 608.5625 367.414062 614.492188 C 357.433594 624.164062 356.808594 624.164062 349.320312 619.484375 C 344.640625 616.363281 336.214844 602.945312 328.726562 587.035156 C 321.550781 571.746094 312.816406 557.082031 309.070312 554.273438 C 301.585938 548.347656 295.96875 546.789062 299.089844 551.777344 C 300.023438 553.652344 307.199219 580.171875 314.6875 611.058594 C 327.792969 665.347656 328.105469 667.84375 325.609375 695.921875 C 324.046875 711.835938 322.488281 726.1875 322.175781 728.058594 C 320.929688 737.105469 316.558594 699.355469 316.558594 676.265625 C 316.246094 643.507812 312.503906 621.355469 300.023438 582.042969 C 289.726562 549.59375 290.351562 545.851562 304.703125 545.539062 C 307.824219 545.539062 312.816406 544.292969 315.9375 542.730469 C 320.304688 540.234375 321.863281 542.730469 326.855469 560.515625 C 336.214844 593.898438 340.273438 601.699219 347.136719 601.699219 C 353.375 601.699219 353.6875 599.828125 353.6875 557.707031 C 353.6875 533.683594 352.128906 511.21875 350.566406 508.097656 C 348.382812 504.042969 348.382812 501.546875 350.566406 500.300781 C 352.441406 499.050781 353.6875 483.761719 353.6875 464.105469 C 353.6875 442.890625 354.9375 430.097656 356.808594 430.097656 C 358.679688 430.097656 359.929688 434.777344 359.929688 440.082031 Z M 306.886719 441.019531 C 308.761719 443.515625 310.007812 447.570312 309.382812 450.378906 C 308.449219 454.746094 307.824219 454.746094 301.585938 450.378906 C 297.527344 447.570312 295.34375 443.515625 296.28125 441.019531 C 298.777344 435.089844 301.894531 435.089844 306.886719 441.019531 Z M 416.089844 441.332031 C 416.089844 446.324219 407.664062 454.746094 402.984375 455.058594 C 398.617188 455.058594 400.488281 446.324219 405.480469 441.332031 C 411.71875 434.777344 416.089844 435.089844 416.089844 441.332031 Z M 349.945312 455.683594 C 349.007812 468.789062 348.695312 469.097656 337.464844 470.035156 C 325.921875 470.972656 325.609375 470.972656 325.609375 460.050781 C 325.609375 448.195312 331.222656 442.890625 343.703125 442.578125 C 350.257812 442.578125 350.878906 443.828125 349.945312 455.683594 Z M 379.894531 445.699219 C 386.449219 448.195312 388.007812 450.691406 388.007812 459.738281 C 388.007812 470.972656 387.695312 470.972656 376.464844 470.035156 C 364.921875 469.097656 364.609375 468.789062 363.671875 455.683594 C 362.734375 441.332031 364.921875 439.769531 379.894531 445.699219 Z M 309.382812 469.410156 L 310.632812 478.460938 L 302.519531 470.972656 C 298.152344 466.601562 294.40625 460.675781 294.40625 457.242188 C 294.40625 451.628906 295.03125 451.628906 301.585938 455.683594 C 305.328125 458.492188 308.761719 464.417969 309.382812 469.410156 Z M 417.335938 458.804688 C 415.152344 466.601562 407.039062 476.898438 403.609375 476.898438 C 399.550781 476.898438 402.671875 464.417969 408.289062 458.179688 C 415.777344 449.753906 420.144531 450.066406 417.335938 458.804688 Z M 237.625 463.796875 C 239.496094 461.921875 241.992188 460.988281 242.929688 461.921875 C 243.863281 462.859375 239.183594 470.347656 232.007812 478.460938 C 225.144531 486.570312 213.601562 504.667969 206.425781 518.707031 C 199.558594 532.433594 190.824219 548.035156 187.390625 553.339844 L 180.839844 562.699219 L 187.703125 556.769531 C 191.761719 553.027344 194.566406 552.402344 194.566406 554.585938 C 194.566406 556.769531 196.128906 557.394531 197.6875 556.460938 C 202.367188 553.652344 201.433594 559.265625 195.816406 566.132812 C 191.449219 571.746094 191.136719 571.746094 193.320312 564.257812 C 195.191406 557.394531 194.878906 557.082031 190.511719 560.515625 C 187.703125 563.011719 183.960938 563.945312 182.089844 562.699219 C 180.527344 561.761719 178.96875 562.386719 178.96875 563.945312 C 178.96875 565.820312 181.777344 568.9375 185.207031 571.125 C 191.761719 575.179688 193.320312 588.28125 188.328125 600.140625 C 186.144531 606.066406 185.519531 605.753906 182.398438 597.644531 C 180.527344 592.652344 178.96875 586.410156 178.96875 583.292969 C 178.96875 579.859375 176.160156 576.738281 172.414062 575.804688 C 165.550781 573.929688 165.863281 573.929688 173.976562 563.945312 C 186.457031 549.28125 190.511719 539.921875 199.246094 506.226562 C 204.863281 484.386719 209.542969 472.84375 215.472656 466.914062 C 222.960938 459.113281 224.207031 458.804688 228.886719 462.859375 C 232.632812 466.292969 234.816406 466.601562 237.625 463.796875 Z M 308.449219 483.761719 C 313.753906 490.003906 315.625 494.371094 313.128906 494.996094 C 308.761719 496.554688 294.40625 483.453125 294.40625 477.835938 C 294.40625 470.972656 299.710938 473.15625 308.449219 483.761719 Z M 409.847656 490.003906 C 395.808594 501.234375 392.375 494.371094 406.105469 481.578125 C 413.28125 474.714844 414.527344 474.402344 415.777344 479.082031 C 416.398438 481.890625 413.59375 486.882812 409.847656 490.003906 Z M 349.007812 487.820312 C 349.007812 496.554688 348.070312 497.179688 336.839844 498.113281 C 320.929688 499.363281 316.871094 495.308594 323.734375 484.699219 C 328.105469 478.148438 331.222656 476.585938 339.023438 477.523438 C 347.761719 478.460938 349.007812 479.707031 349.007812 487.820312 Z M 387.382812 480.644531 C 389.566406 482.828125 391.128906 487.507812 391.128906 491.5625 C 391.128906 498.113281 389.566406 498.738281 377.089844 498.738281 C 363.046875 498.738281 363.046875 498.738281 363.046875 487.820312 C 363.046875 477.523438 363.671875 476.898438 373.34375 476.898438 C 378.960938 476.898438 385.199219 478.460938 387.382812 480.644531 Z M 237.9375 506.539062 C 232.007812 516.210938 223.894531 527.132812 219.839844 530.875 L 212.039062 537.738281 L 218.59375 528.378906 C 222.023438 523.074219 228.265625 512.777344 232.007812 504.980469 C 238.871094 491.5625 244.488281 485.011719 247.296875 487.820312 C 247.921875 488.753906 243.863281 497.179688 237.9375 506.539062 Z M 482.855469 509.660156 C 489.097656 520.578125 495.648438 530.5625 497.207031 531.5 C 499.078125 532.433594 500.328125 535.242188 500.328125 537.113281 C 500.015625 543.980469 466.007812 497.179688 466.007812 490.003906 C 466.007812 482.828125 471.625 489.066406 482.855469 509.660156 Z M 225.457031 508.722656 C 211.726562 531.8125 197.375 552.402344 195.816406 550.84375 C 194.566406 549.59375 219.214844 504.980469 225.769531 497.179688 C 234.503906 486.570312 234.191406 493.433594 225.457031 508.722656 Z M 488.472656 497.804688 C 491.28125 500.921875 497.519531 511.84375 502.824219 522.453125 C 508.128906 533.058594 516.238281 545.851562 520.921875 551.46875 C 525.289062 556.769531 528.40625 562.074219 527.472656 563.011719 C 525.289062 565.195312 498.769531 529.316406 486.910156 508.097656 C 478.175781 492.8125 479.113281 487.195312 488.472656 497.804688 Z M 309.382812 509.972656 C 313.128906 516.523438 315.9375 525.570312 315.625 529.9375 C 314.6875 536.492188 313.128906 537.738281 303.769531 537.738281 C 292.847656 537.738281 292.847656 537.738281 292.535156 523.699219 C 291.601562 493.433594 297.214844 488.753906 309.382812 509.972656 Z M 419.207031 517.769531 L 419.207031 539.609375 L 409.222656 538.675781 C 398.304688 537.738281 395.496094 532.125 398.617188 519.332031 C 400.800781 510.90625 412.03125 495.621094 416.398438 495.621094 C 417.960938 495.621094 419.207031 505.601562 419.207031 517.769531 Z M 399.863281 508.097656 C 397.054688 512.46875 395.183594 513.089844 390.816406 510.28125 C 385.824219 507.164062 385.824219 506.539062 390.503906 503.105469 C 397.992188 497.492188 404.230469 500.921875 399.863281 508.097656 Z M 324.671875 504.355469 C 327.480469 506.226562 326.855469 507.789062 322.488281 510.59375 C 317.496094 513.714844 315.9375 513.402344 313.128906 508.097656 C 310.320312 502.796875 310.632812 501.859375 315.3125 501.859375 C 318.433594 501.859375 322.488281 503.105469 324.671875 504.355469 Z M 348.695312 513.089844 C 349.632812 515.898438 350.566406 536.492188 350.566406 558.957031 C 350.566406 594.210938 349.945312 599.203125 346.199219 595.460938 C 341.207031 590.15625 322.488281 532.125 322.488281 521.515625 C 322.488281 509.660156 344.640625 502.484375 348.695312 513.089844 Z M 386.449219 514.339844 C 392.0625 520.578125 392.0625 521.515625 383.640625 549.59375 C 378.960938 565.195312 372.71875 583.292969 369.910156 589.21875 C 364.609375 600.140625 364.609375 599.828125 363.671875 558.332031 C 363.359375 535.242188 363.671875 514.339844 364.296875 512.15625 C 366.792969 505.914062 380.207031 507.476562 386.449219 514.339844 Z M 295.65625 586.097656 C 309.070312 628.53125 311.257812 650.371094 305.328125 681.882812 C 300.335938 709.652344 296.28125 720.257812 292.847656 716.515625 C 288.167969 711.835938 280.992188 649.433594 280.679688 611.058594 C 280.367188 569.5625 284.734375 531.8125 287.542969 553.339844 C 288.167969 558.332031 291.910156 573.308594 295.65625 586.097656 Z M 433.246094 586.722656 C 436.054688 622.601562 424.824219 718.386719 417.960938 716.203125 C 416.089844 715.578125 412.03125 704.035156 408.910156 690.308594 C 402.671875 662.226562 403.609375 632.585938 411.71875 604.820312 C 414.527344 595.460938 418.894531 578.300781 421.703125 566.441406 C 427.945312 541.796875 429.816406 545.539062 433.246094 586.722656 Z M 319.054688 578.609375 C 322.488281 587.347656 324.046875 596.394531 322.488281 599.828125 C 321.550781 603.257812 319.679688 604.507812 318.742188 602.945312 C 316.871094 600.140625 306.886719 562.386719 306.886719 558.644531 C 306.886719 553.339844 314.0625 564.882812 319.054688 578.609375 Z M 399.550781 584.226562 C 393.625 606.378906 392.6875 607.9375 390.191406 600.761719 C 388.007812 594.210938 389.257812 588.28125 395.496094 574.867188 C 400.175781 564.882812 404.230469 557.707031 404.855469 558.332031 C 405.480469 558.957031 403.296875 570.8125 399.550781 584.226562 Z M 522.167969 567.691406 C 522.167969 573.308594 516.550781 570.5 514.992188 563.945312 C 513.742188 558.957031 514.054688 558.332031 517.800781 561.453125 C 520.296875 563.324219 522.167969 566.132812 522.167969 567.691406 Z M 169.296875 579.546875 C 172.726562 581.730469 171.167969 583.601562 162.742188 587.035156 C 156.816406 589.53125 148.078125 595.460938 143.398438 600.140625 C 138.71875 604.820312 134.039062 607.9375 133.105469 606.691406 C 130.921875 604.507812 150.265625 582.042969 156.816406 579.234375 C 163.679688 576.425781 164.304688 576.425781 169.296875 579.546875 Z M 568.34375 590.46875 C 576.457031 598.265625 582.070312 605.441406 580.824219 606.378906 C 579.574219 607.628906 574.894531 604.820312 570.214844 600.140625 C 565.535156 595.460938 556.800781 589.53125 551.183594 587.035156 C 545.257812 584.851562 541.511719 581.417969 542.449219 579.859375 C 546.191406 573.621094 553.992188 577.050781 568.34375 590.46875 Z M 184.273438 616.050781 C 184.894531 619.484375 184.273438 627.28125 182.710938 633.210938 L 179.59375 643.820312 L 179.28125 630.402344 C 178.96875 619.796875 177.71875 617.300781 173.039062 617.300781 C 169.921875 617.300781 163.679688 614.492188 159 610.746094 L 150.886719 604.507812 L 150.886719 611.996094 C 150.886719 616.050781 147.457031 622.601562 143.089844 626.660156 C 133.414062 636.019531 133.414062 633.523438 143.089844 614.179688 C 148.390625 603.570312 154.632812 597.019531 162.433594 592.652344 L 173.976562 586.722656 L 178.34375 598.265625 C 180.527344 604.507812 183.335938 612.308594 184.273438 616.050781 Z M 570.839844 617.300781 L 578.328125 634.460938 L 568.96875 624.476562 C 562.726562 617.609375 560.542969 612.621094 561.792969 608.875 C 563.664062 604.507812 562.414062 604.820312 555.238281 610.433594 C 550.246094 614.179688 543.695312 617.300781 540.574219 617.300781 C 535.894531 617.300781 534.648438 619.796875 534.648438 630.089844 C 534.648438 637.578125 533.398438 641.945312 531.527344 640.699219 C 526.535156 637.578125 527.785156 613.867188 533.710938 599.515625 L 539.328125 586.410156 L 551.496094 593.273438 C 560.855469 598.578125 565.222656 604.195312 570.839844 617.300781 Z M 342.769531 627.28125 C 344.953125 636.957031 338.398438 670.339844 334.34375 670.339844 C 333.097656 670.339844 331.847656 666.90625 331.847656 662.539062 C 331.847656 658.484375 329.664062 646.9375 327.167969 636.957031 C 324.359375 626.972656 323.113281 614.804688 324.359375 609.8125 L 326.230469 600.761719 L 333.71875 609.8125 C 337.464844 614.804688 341.832031 622.601562 342.769531 627.28125 Z M 383.640625 644.441406 L 376.777344 671.898438 L 373.03125 657.234375 C 367.414062 635.394531 368.351562 626.347656 377.710938 612.621094 L 386.136719 600.453125 L 388.320312 608.5625 C 389.566406 613.867188 388.007812 627.28125 383.640625 644.441406 Z M 159.3125 628.84375 C 157.441406 639.453125 152.136719 648.5 147.769531 648.5 C 146.519531 648.5 147.769531 640.699219 150.265625 631.339844 C 155.257812 612.929688 162.121094 611.058594 159.3125 628.84375 Z M 442.609375 681.570312 C 442.609375 714.957031 441.671875 742.097656 440.425781 742.097656 C 431.375 742.097656 428.878906 712.769531 434.496094 675.019531 C 436.367188 662.851562 437.929688 644.753906 437.929688 634.769531 C 437.929688 624.476562 438.863281 617.300781 440.425781 618.546875 C 441.671875 619.796875 442.609375 648.1875 442.609375 681.570312 Z M 562.414062 631.652344 C 565.847656 645.066406 565.222656 651.929688 560.855469 647.5625 C 557.734375 644.441406 550.871094 621.980469 552.433594 619.796875 C 555.550781 614.179688 558.984375 618.234375 562.414062 631.652344 Z M 172.726562 622.292969 C 172.726562 629.46875 165.238281 651.621094 162.742188 651.621094 C 160.871094 651.621094 160.558594 649.433594 161.496094 646.628906 C 162.433594 643.820312 163.367188 636.957031 163.367188 631.027344 C 163.367188 623.539062 164.929688 620.417969 168.046875 620.417969 C 170.542969 620.417969 172.726562 621.355469 172.726562 622.292969 Z M 275.6875 638.515625 C 275.6875 646.316406 277.246094 667.84375 279.433594 686.25 C 281.929688 708.089844 281.929688 722.753906 280.054688 729.621094 C 273.503906 753.019531 271.007812 741.164062 270.070312 680.945312 C 269.449219 638.515625 270.070312 620.417969 272.257812 621.980469 C 274.128906 622.914062 275.6875 630.402344 275.6875 638.515625 Z M 548.375 625.410156 C 551.496094 633.523438 550.558594 654.113281 547.441406 648.5 C 542.761719 640.699219 539.953125 620.417969 543.382812 620.417969 C 544.945312 620.417969 547.441406 622.601562 548.375 625.410156 Z M 313.128906 719.011719 C 313.128906 749.273438 312.816406 751.769531 308.136719 748.027344 C 303.769531 744.59375 303.144531 739.601562 304.703125 720.257812 C 306.265625 698.730469 308.761719 685.9375 311.878906 685.9375 C 312.503906 685.9375 313.128906 700.914062 313.128906 719.011719 Z M 409.847656 728.371094 C 409.847656 735.234375 407.664062 743.660156 405.167969 747.089844 C 401.113281 752.394531 400.800781 749.585938 400.800781 718.699219 L 401.113281 684.378906 L 405.480469 699.980469 C 407.664062 708.402344 409.847656 721.195312 409.847656 728.371094 Z M 297.527344 735.234375 C 297.527344 743.347656 299.710938 749.273438 303.769531 753.019531 C 312.191406 760.820312 309.695312 773.300781 292.222656 808.867188 C 282.863281 828.523438 278.808594 841.003906 278.496094 850.988281 C 278.496094 858.789062 277.246094 872.203125 275.6875 880.9375 C 274.128906 891.546875 273.191406 877.507812 273.503906 837.257812 C 273.503906 804.5 272.566406 771.425781 271.320312 763.316406 C 269.136719 750.523438 269.449219 748.652344 275.375 746.777344 C 278.808594 745.84375 283.488281 739.914062 285.671875 733.988281 C 290.976562 719.324219 297.527344 720.257812 297.527344 735.234375 Z M 425.449219 729.621094 C 425.449219 732.738281 429.816406 739.914062 434.808594 745.21875 C 445.105469 755.828125 446.351562 764.5625 439.488281 778.601562 C 435.742188 786.089844 435.433594 794.515625 437.929688 828.210938 C 439.488281 850.363281 441.046875 874.699219 441.046875 882.1875 C 441.046875 906.523438 436.992188 893.105469 434.496094 861.28125 C 432.625 834.140625 430.753906 827.585938 419.832031 805.746094 C 403.296875 773.300781 400.800781 760.507812 409.535156 751.769531 C 413.59375 747.714844 416.089844 741.164062 416.089844 734.300781 C 416.089844 726.8125 417.648438 723.378906 420.769531 723.378906 C 423.265625 723.378906 425.449219 726.1875 425.449219 729.621094 Z M 268.511719 857.539062 C 267.886719 895.914062 265.703125 924.621094 263.519531 929.300781 C 260.710938 935.539062 260.398438 931.171875 261.648438 907.460938 C 262.894531 885.308594 262.273438 873.453125 258.527344 860.660156 C 248.855469 827.273438 248.855469 815.730469 258.839844 796.699219 C 270.382812 774.546875 270.695312 775.796875 268.511719 857.539062 Z M 462.886719 821.972656 C 462.886719 826.339844 459.769531 840.066406 456.335938 851.921875 C 450.40625 870.644531 449.785156 878.753906 451.34375 905.585938 C 452.902344 930.234375 452.59375 935.851562 449.785156 930.859375 C 446.039062 924.621094 440.113281 791.707031 443.230469 783.90625 C 445.414062 777.980469 462.886719 811.988281 462.886719 821.972656 Z M 300.335938 838.195312 C 300.648438 850.050781 288.792969 885.929688 282.238281 892.796875 C 278.183594 896.851562 284.734375 843.8125 290.351562 826.652344 C 295.03125 811.675781 295.96875 810.425781 297.839844 817.292969 C 299.089844 821.347656 300.023438 830.707031 300.335938 838.195312 Z M 256.65625 902.777344 C 256.03125 943.964844 255.71875 942.714844 263.519531 940.21875 C 271.007812 937.722656 271.007812 934.601562 262.894531 976.097656 C 261.023438 987.332031 258.839844 1000.433594 258.839844 1005.425781 C 258.527344 1010.417969 256.03125 1016.035156 253.222656 1017.90625 C 246.671875 1021.964844 241.992188 1017.90625 246.984375 1012.914062 C 249.167969 1010.730469 250.726562 1007.609375 250.726562 1006.050781 C 250.726562 1004.179688 247.609375 1006.050781 244.175781 1010.417969 L 237.9375 1018.21875 L 239.808594 1010.417969 C 241.992188 1003.242188 241.679688 1002.929688 237.625 1008.546875 C 233.878906 1013.539062 232.007812 1013.851562 226.078125 1010.417969 L 218.902344 1006.675781 L 228.265625 997.003906 C 239.496094 984.835938 245.734375 966.425781 243.238281 953.324219 C 241.992188 947.082031 242.929688 941.15625 246.359375 936.164062 C 250.726562 929.609375 251.351562 922.746094 249.480469 892.171875 C 248.230469 872.203125 246.671875 848.804688 246.046875 840.378906 C 244.488281 825.714844 244.800781 826.339844 250.726562 848.179688 C 255.71875 865.652344 257.28125 879.691406 256.65625 902.777344 Z M 464.449219 866.898438 C 459.144531 901.84375 460.078125 924.308594 466.945312 937.097656 C 468.816406 940.53125 470.0625 948.019531 469.441406 953.636719 C 468.503906 968.921875 474.433594 986.707031 483.167969 994.820312 C 490.65625 1001.996094 493.464844 1010.417969 488.472656 1010.417969 C 487.222656 1010.417969 484.105469 1008.546875 481.921875 1006.363281 C 478.800781 1003.242188 478.488281 1003.867188 480.359375 1008.859375 C 482.542969 1014.476562 482.230469 1014.789062 477.550781 1010.730469 C 472.558594 1006.988281 472.246094 1006.988281 474.121094 1012.292969 C 475.679688 1017.28125 474.742188 1016.972656 469.441406 1010.730469 C 465.070312 1006.050781 462.886719 1005.113281 462.886719 1007.921875 C 462.886719 1010.417969 464.449219 1013.851562 466.632812 1016.035156 C 469.441406 1018.84375 468.816406 1019.777344 463.511719 1019.777344 C 455.710938 1019.777344 455.710938 1019.46875 448.847656 975.476562 C 442.921875 937.097656 442.921875 937.722656 450.40625 940.21875 C 456.648438 942.089844 456.648438 941.15625 456.335938 906.210938 C 456.023438 880.316406 457.273438 864.714844 461.328125 849.738281 C 464.449219 838.507812 467.566406 830.082031 468.191406 830.707031 C 468.816406 831.332031 467.257812 847.554688 464.449219 866.898438 Z M 273.503906 961.433594 C 274.441406 963.929688 273.816406 967.675781 272.257812 970.171875 C 270.382812 973.292969 269.449219 972.355469 269.449219 965.804688 C 269.449219 956.753906 271.007812 954.882812 273.503906 961.433594 Z M 444.167969 965.804688 C 444.167969 972.042969 443.230469 973.292969 440.734375 970.796875 C 438.550781 968.609375 437.929688 964.867188 438.863281 962.371094 C 441.984375 954.882812 444.167969 956.441406 444.167969 965.804688 Z M 444.167969 965.804688 "/>
<path style=" stroke:none;fill-rule:nonzero;fill:rgb(28.235294%,21.568627%,100%);fill-opacity:1;" d="M 337.074219 216.714844 C 340.816406 217.339844 343.9375 219.210938 343.9375 220.773438 C 343.9375 222.332031 341.441406 222.957031 338.632812 221.707031 C 334.578125 220.460938 333.953125 220.773438 336.136719 223.269531 C 338.007812 225.140625 342.375 226.074219 346.433594 224.828125 C 356.105469 222.332031 349.242188 214.21875 338.007812 214.84375 C 330.832031 215.46875 330.519531 215.46875 337.074219 216.714844 Z M 337.074219 216.714844 "/>
<path style=" stroke:none;fill-rule:nonzero;fill:rgb(28.235294%,21.568627%,100%);fill-opacity:1;" d="M 363.75 218.921875 C 360.628906 222.355469 361.253906 223.914062 366.558594 225.472656 C 370.613281 226.722656 374.980469 226.097656 377.167969 223.914062 C 379.664062 220.792969 379.351562 220.167969 375.292969 221.730469 C 372.175781 222.664062 369.054688 222.355469 368.117188 220.792969 C 367.183594 219.234375 370.300781 217.363281 374.980469 216.738281 L 383.71875 215.488281 L 375.605469 214.867188 C 370.925781 214.867188 365.621094 216.425781 363.75 218.921875 Z M 363.75 218.921875 "/>
<path style=" stroke:none;fill-rule:nonzero;fill:rgb(28.235294%,21.568627%,100%);fill-opacity:1;" d="M 348.070312 242.242188 C 348.695312 245.988281 351.816406 247.859375 356.808594 247.859375 C 361.800781 247.859375 364.921875 245.988281 365.542969 242.242188 C 366.167969 239.4375 365.230469 236.941406 363.359375 236.941406 C 361.488281 236.941406 360.238281 238.8125 360.863281 240.683594 C 361.175781 242.867188 359.304688 244.738281 356.808594 244.738281 C 354.3125 244.738281 352.441406 242.867188 353.0625 240.683594 C 353.375 238.8125 352.128906 236.941406 350.257812 236.941406 C 348.382812 236.941406 347.449219 239.4375 348.070312 242.242188 Z M 348.070312 242.242188 "/>
<path style=" stroke:none;fill-rule:nonzero;fill:rgb(28.235294%,21.568627%,100%);fill-opacity:1;" d="M 349.9375 255.03125 C 353.679688 255.652344 359.917969 255.652344 363.976562 255.03125 C 367.71875 254.40625 364.601562 253.78125 356.800781 253.78125 C 349 253.78125 345.878906 254.40625 349.9375 255.03125 Z M 349.9375 255.03125 "/>
<path style=" stroke:none;fill-rule:nonzero;fill:rgb(28.235294%,21.568627%,100%);fill-opacity:1;" d="M 351.480469 261.425781 C 354.289062 262.050781 358.65625 262.050781 360.839844 261.425781 C 362.714844 260.488281 360.53125 259.867188 355.226562 259.867188 C 350.234375 259.867188 348.363281 260.488281 351.480469 261.425781 Z M 351.480469 261.425781 "/>
<path style=" stroke:none;fill-rule:nonzero;fill:rgb(28.235294%,21.568627%,100%);fill-opacity:1;" d="M 294.152344 764.9375 C 295.089844 769.304688 296.023438 775.234375 296.023438 778.355469 C 296.023438 781.472656 297.585938 783.035156 299.457031 781.785156 C 303.199219 779.601562 300.394531 764.9375 295.402344 760.257812 C 292.90625 758.074219 292.59375 759.632812 294.152344 764.9375 Z M 294.152344 764.9375 "/>
<path style=" stroke:none;fill-rule:nonzero;fill:rgb(28.235294%,21.568627%,100%);fill-opacity:1;" d="M 273.828125 774.1875 C 273.828125 778.867188 286.933594 786.980469 290.675781 784.796875 C 292.238281 783.546875 290.675781 781.363281 286.933594 779.804688 C 283.1875 777.933594 280.070312 775.4375 280.070312 773.875 C 280.070312 772.628906 278.820312 771.378906 276.949219 771.378906 C 275.386719 771.378906 273.828125 772.628906 273.828125 774.1875 Z M 273.828125 774.1875 "/>
<path style=" stroke:none;fill-rule:nonzero;fill:rgb(28.235294%,21.568627%,100%);fill-opacity:1;" d="M 412.871094 768.351562 C 411.621094 773.65625 411.621094 778.648438 412.558594 779.585938 C 415.367188 782.390625 416.300781 780.207031 418.484375 768.664062 C 420.980469 755.871094 415.675781 755.558594 412.871094 768.351562 Z M 412.871094 768.351562 "/>
<path style=" stroke:none;fill-rule:nonzero;fill:rgb(28.235294%,21.568627%,100%);fill-opacity:1;" d="M 427.558594 777.328125 C 423.503906 780.449219 421.320312 783.878906 422.878906 784.816406 C 426.621094 787 437.542969 778.886719 436.292969 774.832031 C 435.671875 772.960938 431.925781 774.207031 427.558594 777.328125 Z M 427.558594 777.328125 "/>
<path style=" stroke:none;fill-rule:nonzero;fill:rgb(28.235294%,21.568627%,100%);fill-opacity:1;" d="M 225.671875 1017.898438 C 225.671875 1019.457031 227.230469 1020.082031 228.792969 1019.144531 C 230.664062 1018.210938 231.910156 1016.648438 231.910156 1015.714844 C 231.910156 1015.089844 230.664062 1014.464844 228.792969 1014.464844 C 227.230469 1014.464844 225.671875 1016.027344 225.671875 1017.898438 Z M 225.671875 1017.898438 "/>
</g>
</svg>
